<svg xmlns="http://www.w3.org/2000/svg" viewBox="0 0 512 512" width="512" height="512">
	<style>
		tspan { white-space:pre }
		.shp0 { fill: #FFFFFF } 
	</style>
	<path id="Path 0" class="shp0" d="M140.39 121.65L174.41 126.71C311.24 258.1 351.29 296.24 351.7 296.23C352.11 296.22 354.28 293.76 356.51 290.77C358.75 287.79 367.55 276.94 376.07 266.66L391.57 247.98L409.65 263.68L364.89 316.24L409.54 354.96L380.77 388.74L336.11 350.03L285.87 409.03L267.76 393.36C291.81 365.88 302.75 353.64 307.59 348.45L316.4 339C178.4 231.02 134.71 196.78 130.29 193.26L122.25 186.85C106.63 134.42 102.05 118.64 102 117.95C101.95 117.26 102.91 116.68 104.14 116.65C105.37 116.62 121.68 118.87 140.39 121.65Z" />
	<path id="Path 0 copy" class="shp0" d="M372.29 121.65L337.97 126.71C199.92 258.1 159.5 296.24 159.09 296.23C158.67 296.22 156.49 293.76 154.24 290.77C151.98 287.79 143.1 276.94 134.5 266.66L118.86 247.98L100.63 263.68L145.79 316.24L100.74 354.96L129.76 388.74L174.82 350.03L225.51 409.03L243.78 393.36C219.51 365.88 208.47 353.64 203.59 348.45L194.71 339C333.94 231.02 378.01 196.78 382.48 193.26L390.59 186.85C406.35 134.42 410.97 118.64 411.02 117.95C411.07 117.26 410.1 116.68 408.86 116.65C407.62 116.62 391.16 118.87 372.29 121.65Z" />
</svg>